<?xml version="1.0" encoding="UTF-8" standalone="no"?>
<svg
   xmlns:dc="http://purl.org/dc/elements/1.1/"
   xmlns:cc="http://creativecommons.org/ns#"
   xmlns:rdf="http://www.w3.org/1999/02/22-rdf-syntax-ns#"
   xmlns:svg="http://www.w3.org/2000/svg"
   xmlns="http://www.w3.org/2000/svg"
   width="5cm"
   height="5cm"
   viewBox="0 0 50 49.999999"
   version="1.1"
   id="svg8">
  <defs
     id="defs2" />
  <metadata
     id="metadata5">
    <rdf:RDF>
      <cc:Work
         rdf:about="">
        <dc:format>image/svg+xml</dc:format>
        <dc:type
           rdf:resource="http://purl.org/dc/dcmitype/StillImage" />
        <dc:title></dc:title>
      </cc:Work>
    </rdf:RDF>
  </metadata>
  <g
     id="layer5"
     style="display:inline;opacity:1">
    <path
       id="circle859"
       style="display:inline;opacity:1;fill:#48cc9e;fill-opacity:1;stroke-width:0.4"
       d="M 22.267476,11.947379 A 23.614016,23.614016 0 0 0 -1.2163693,33.089757 H -18.236511 V 55.484773 H 9.5917623 A 23.614016,23.614016 0 0 0 22.267476,59.175504 23.614016,23.614016 0 0 0 34.943703,55.484773 H 62.77198 V 33.089757 H 45.751829 A 23.614016,23.614016 0 0 0 22.267476,11.947379 Z" />
    <path
       id="circle853"
       style="display:inline;opacity:1;fill:#66d4ad;fill-opacity:1;stroke-width:0.4"
       d="M 22.267476,17.371337 A 18.190105,18.190105 0 0 0 4.0773655,35.561441 18.190105,18.190105 0 0 0 4.3610695,38.759696 H -18.236511 V 55.484773 H 62.77198 V 38.759696 H 40.173875 A 18.190105,18.190105 0 0 0 40.45758,35.561441 18.190105,18.190105 0 0 0 22.267476,17.371337 Z" />
    <path
       id="path833"
       style="display:inline;opacity:1;fill:#88ddbf;fill-opacity:1;stroke-width:0.4"
       d="M 22.20133,22.663004 A 12.898438,12.898438 0 0 0 9.3690366,35.561441 12.898438,12.898438 0 0 0 12.812239,44.334548 h -31.04875 V 55.484773 H 62.77198 V 44.334548 H 31.722713 a 12.898438,12.898438 0 0 0 3.4432,-8.773107 12.898438,12.898438 0 0 0 -12.898437,-12.898437 12.898438,12.898438 0 0 0 -0.06615,0 z" />
  </g>
</svg>
